<?xml version="1.0" encoding="utf-8"?>
<!-- Generator: Adobe Illustrator 16.0.3, SVG Export Plug-In . SVG Version: 6.00 Build 0)  -->
<!DOCTYPE svg PUBLIC "-//W3C//DTD SVG 1.1//EN" "http://www.w3.org/Graphics/SVG/1.1/DTD/svg11.dtd">
<svg version="1.1" id="Layer_1" xmlns="http://www.w3.org/2000/svg" xmlns:xlink="http://www.w3.org/1999/xlink" x="0px" y="0px"
	 width="50px" height="50px" viewBox="0 0 50 50" enable-background="new 0 0 50 50" xml:space="preserve">
<path id="pinterest-circle-icon" d="M190.49-96.849c-13.53,0-24.5,10.969-24.5,24.5s10.97,24.5,24.5,24.5s24.5-10.969,24.5-24.5
	S204.021-96.849,190.49-96.849z M193.704-64.284c-1.915,0-3.715-1.035-4.331-2.21c0,0-1.03,4.085-1.247,4.874
	c-0.768,2.786-3.026,5.575-3.202,5.803c-0.122,0.159-0.392,0.109-0.42-0.102c-0.05-0.355-0.625-3.871,0.053-6.738
	c0.34-1.44,2.28-9.662,2.28-9.662s-0.565-1.132-0.565-2.806c0-2.628,1.523-4.59,3.42-4.59c1.612,0,2.392,1.211,2.392,2.663
	c0,1.621-1.032,4.045-1.566,6.292c-0.444,1.881,0.944,3.415,2.799,3.415c3.359,0,5.622-4.315,5.622-9.427
	c0-3.886-2.616-6.795-7.378-6.795c-5.377,0-8.73,4.011-8.73,8.492c0,1.544,0.457,2.635,1.171,3.478
	c0.327,0.387,0.374,0.543,0.255,0.988c-0.086,0.326-0.28,1.112-0.362,1.423c-0.117,0.449-0.481,0.609-0.888,0.443
	c-2.477-1.011-3.631-3.724-3.631-6.774c0-5.037,4.248-11.077,12.672-11.077c6.771,0,11.226,4.898,11.226,10.158
	C203.271-69.481,199.404-64.284,193.704-64.284z"/>
<path id="instagram-circle-icon" d="M108.474-83.045v3.011c0,0.483-0.392,0.874-0.875,0.874h-2.945
	c-0.483,0-0.875-0.391-0.875-0.874v-3.011c0-0.482,0.392-0.874,0.875-0.874h2.945C108.082-83.919,108.474-83.527,108.474-83.045z
	 M97.187-68.209c2.218,0,4.015-1.797,4.015-4.014c0-2.216-1.797-4.013-4.015-4.013c-2.217,0-4.014,1.797-4.014,4.013
	C93.173-70.006,94.97-68.209,97.187-68.209z M121.33-72.349c0,13.531-10.969,24.5-24.5,24.5c-13.53,0-24.5-10.969-24.5-24.5
	s10.97-24.5,24.5-24.5C110.361-96.849,121.33-85.88,121.33-72.349z M110.964-76.306h-8.049c0.82,1.152,1.305,2.561,1.305,4.083
	c0,3.894-3.157,7.051-7.051,7.051s-7.05-3.157-7.05-7.051c0-1.522,0.483-2.93,1.305-4.083H83.41v12.356
	c0,3.009,2.44,5.449,5.45,5.449h16.654c3.01,0,5.449-2.439,5.449-5.449V-76.306z M97.169-66.791c2.995,0,5.432-2.437,5.432-5.432
	c0-1.625-0.719-3.085-1.854-4.083c-0.398-0.349-0.849-0.641-1.337-0.863c-0.683-0.311-1.441-0.485-2.24-0.485
	c-0.798,0-1.557,0.175-2.24,0.485c-0.488,0.223-0.938,0.514-1.336,0.863c-1.136,0.997-1.854,2.457-1.854,4.083
	C91.738-69.228,94.174-66.791,97.169-66.791z M110.964-80.748c0-3.009-2.44-5.449-5.449-5.449H90.623v6.87h-1.117v-6.87H88.86
	c-0.043,0-0.084,0.002-0.127,0.002v6.867h-1.117v-6.726c-0.271,0.063-0.533,0.146-0.786,0.248v6.478h-1.117v-5.868
	c-1.393,0.987-2.303,2.61-2.303,4.447v3.579h8.736c1.279-1.298,3.056-2.104,5.022-2.104s3.744,0.806,5.023,2.104h8.771V-80.748
	L110.964-80.748z"/>
<path id="facebook-circle-icon" fill="#FFFFFF" d="M25,0.336C11.378,0.336,0.336,11.378,0.336,25S11.378,49.664,25,49.664
	c13.621,0,24.664-11.042,24.664-24.664S38.621,0.336,25,0.336z M32.3,14.846c0,0-2.467,0-3.447,0c-1.216,0-1.47,0.499-1.47,1.757
	c0,1.048,0,3.042,0,3.042H32.3l-0.474,5.339h-4.443v15.951h-6.37V25.052h-3.312v-5.407h3.312c0,0,0-0.778,0-4.258
	c0-3.997,2.137-6.083,6.876-6.083c0.777,0,4.411,0,4.411,0V14.846L32.3,14.846z"/>
<path id="twitter-4-icon" d="M3.17-96.849c-13.531,0-24.5,10.969-24.5,24.5s10.969,24.5,24.5,24.5c13.531,0,24.5-10.969,24.5-24.5
	S16.701-96.849,3.17-96.849z M15.492-76.57c0.359,7.993-5.601,16.904-16.152,16.904c-3.209,0-6.195-0.941-8.71-2.554
	c3.015,0.356,6.024-0.48,8.413-2.353c-2.486-0.046-4.585-1.688-5.308-3.946c0.89,0.17,1.766,0.12,2.565-0.097
	c-2.733-0.55-4.619-3.011-4.558-5.644c0.766,0.426,1.643,0.682,2.575,0.71c-2.531-1.69-3.248-5.032-1.759-7.586
	c2.802,3.438,6.989,5.701,11.712,5.938c-0.828-3.555,1.868-6.978,5.535-6.978c1.635,0,3.112,0.69,4.148,1.794
	c1.294-0.254,2.51-0.728,3.608-1.379c-0.424,1.327-1.326,2.441-2.499,3.144c1.149-0.137,2.245-0.442,3.264-0.895
	C17.565-78.372,16.602-77.371,15.492-76.57z"/>
</svg>
