<?xml version="1.0" encoding="utf-8"?>
<!-- Generator: Adobe Illustrator 16.0.3, SVG Export Plug-In . SVG Version: 6.00 Build 0)  -->
<!DOCTYPE svg PUBLIC "-//W3C//DTD SVG 1.1//EN" "http://www.w3.org/Graphics/SVG/1.1/DTD/svg11.dtd">
<svg version="1.1" id="Layer_1" xmlns="http://www.w3.org/2000/svg" xmlns:xlink="http://www.w3.org/1999/xlink" x="0px" y="0px"
	 width="50px" height="50px" viewBox="0 0 50 50" enable-background="new 0 0 50 50" xml:space="preserve">
<path id="pinterest-circle-icon" fill="#FFFFFF" d="M25,0.5C11.47,0.5,0.5,11.469,0.5,25S11.47,49.5,25,49.5S49.5,38.531,49.5,25
	S38.53,0.5,25,0.5z M28.214,33.064c-1.915,0-3.715-1.035-4.331-2.211c0,0-1.03,4.086-1.247,4.875
	c-0.768,2.785-3.026,5.574-3.202,5.803c-0.122,0.158-0.392,0.107-0.42-0.102c-0.05-0.355-0.625-3.871,0.053-6.738
	c0.34-1.441,2.28-9.662,2.28-9.662s-0.565-1.132-0.565-2.806c0-2.628,1.523-4.59,3.42-4.59c1.612,0,2.392,1.211,2.392,2.663
	c0,1.621-1.032,4.045-1.566,6.292c-0.444,1.881,0.944,3.414,2.799,3.414c3.359,0,5.622-4.314,5.622-9.426
	c0-3.886-2.616-6.795-7.378-6.795c-5.377,0-8.73,4.011-8.73,8.492c0,1.544,0.457,2.635,1.171,3.478
	c0.327,0.386,0.374,0.542,0.255,0.988c-0.086,0.326-0.28,1.111-0.362,1.424c-0.117,0.449-0.481,0.609-0.888,0.443
	c-2.477-1.012-3.631-3.725-3.631-6.774c0-5.037,4.248-11.077,12.672-11.077c6.771,0,11.226,4.898,11.226,10.158
	C37.781,27.867,33.914,33.064,28.214,33.064z"/>
<path id="instagram-circle-icon" fill="#FFFFFF" d="M95.061-76.656v3.011c0,0.483-0.391,0.874-0.875,0.874H91.24
	c-0.482,0-0.875-0.391-0.875-0.874v-3.011c0-0.482,0.393-0.874,0.875-0.874h2.945C94.67-77.53,95.061-77.139,95.061-76.656z
	 M83.773-61.82c2.219,0,4.016-1.797,4.016-4.014c0-2.216-1.797-4.013-4.016-4.013c-2.217,0-4.014,1.797-4.014,4.013
	C79.76-63.617,81.557-61.82,83.773-61.82z M107.918-65.96c0,13.531-10.969,24.5-24.5,24.5s-24.5-10.969-24.5-24.5
	s10.969-24.5,24.5-24.5S107.918-79.491,107.918-65.96z M97.551-69.917h-8.049c0.82,1.152,1.305,2.561,1.305,4.083
	c0,3.894-3.156,7.05-7.051,7.05c-3.893,0-7.049-3.156-7.049-7.05c0-1.522,0.482-2.93,1.305-4.083h-8.014v12.356
	c0,3.009,2.439,5.448,5.449,5.448h16.654c3.01,0,5.449-2.439,5.449-5.448V-69.917z M83.756-60.402c2.996,0,5.432-2.437,5.432-5.432
	c0-1.625-0.719-3.085-1.854-4.083c-0.398-0.349-0.85-0.641-1.338-0.863c-0.682-0.311-1.441-0.485-2.24-0.485
	c-0.797,0-1.557,0.175-2.24,0.485c-0.488,0.223-0.938,0.514-1.336,0.863c-1.135,0.997-1.854,2.457-1.854,4.083
	C78.326-62.839,80.762-60.402,83.756-60.402z M97.551-74.359c0-3.009-2.439-5.449-5.449-5.449H77.211v6.87h-1.117v-6.87h-0.646
	c-0.043,0-0.084,0.002-0.127,0.002v6.867h-1.117v-6.726c-0.27,0.063-0.533,0.146-0.785,0.248v6.478h-1.117v-5.868
	c-1.393,0.987-2.303,2.61-2.303,4.447v3.579h8.736c1.279-1.298,3.055-2.104,5.021-2.104s3.744,0.806,5.023,2.104h8.771V-74.359
	L97.551-74.359z"/>
<path id="twitter-4-icon" fill="#FFFFFF" d="M25-89C11.469-89,0.5-78.031,0.5-64.5S11.469-40,25-40c13.531,0,24.5-10.969,24.5-24.5
	S38.531-89,25-89z M37.322-68.722c0.358,7.992-5.602,16.904-16.152,16.904c-3.209,0-6.195-0.941-8.71-2.555
	c3.015,0.356,6.024-0.48,8.413-2.353c-2.486-0.046-4.585-1.688-5.308-3.946c0.89,0.17,1.766,0.121,2.565-0.097
	c-2.733-0.55-4.619-3.011-4.558-5.644c0.766,0.426,1.643,0.682,2.575,0.71c-2.531-1.69-3.248-5.032-1.759-7.586
	c2.802,3.438,6.989,5.701,11.711,5.938c-0.828-3.555,1.869-6.978,5.535-6.978c1.636,0,3.112,0.69,4.148,1.794
	c1.294-0.254,2.51-0.728,3.608-1.379c-0.425,1.327-1.325,2.441-2.499,3.144c1.149-0.137,2.245-0.442,3.265-0.895
	C39.396-70.523,38.432-69.522,37.322-68.722z"/>
</svg>
